<?xml version="1.0" standalone="no"?>
<!DOCTYPE svg PUBLIC "-//W3C//DTD SVG 20010904//EN"
 "http://www.w3.org/TR/2001/REC-SVG-20010904/DTD/svg10.dtd">
<svg version="1.0" xmlns="http://www.w3.org/2000/svg"
 width="340.000000pt" height="340.000000pt" viewBox="0 0 340.000000 340.000000"
 preserveAspectRatio="xMidYMid meet">
<metadata>
Created by potrace 1.14, written by Peter Selinger 2001-2017
</metadata>
<g transform="translate(0.000000,340.000000) scale(0.100000,-0.100000)"
fill="#000000" stroke="none">
<path d="M1848 3395 c-1 -1 -23 -5 -48 -8 -157 -20 -361 -123 -484 -243 l-38
-38 -97 -2 c-124 -1 -187 -10 -278 -40 -235 -77 -426 -240 -536 -459 -36 -73
-70 -172 -84 -247 -14 -75 -8 -297 10 -362 11 -39 13 -66 7 -82 -24 -63 -34
-284 -17 -386 27 -164 117 -341 243 -474 118 -125 323 -235 484 -259 25 -4 54
-9 65 -11 30 -6 186 -5 220 1 17 3 39 7 50 9 11 2 38 7 59 11 22 5 37 4 34 -1
-3 -5 -9 -31 -12 -59 -4 -27 -13 -86 -21 -130 -8 -44 -16 -96 -19 -115 -3 -19
-12 -80 -21 -135 -9 -55 -19 -113 -21 -130 -22 -139 -13 -195 35 -219 20 -10
97 -13 316 -12 264 1 293 3 319 19 32 21 56 72 49 102 -5 19 -37 220 -48 295
-7 50 -17 112 -21 135 -2 11 -7 42 -10 70 -3 27 -10 72 -15 99 -14 75 -14 74
34 65 46 -9 292 -5 346 6 121 24 276 93 381 170 261 191 405 486 396 810 -4
131 -7 147 -37 250 -39 131 -117 274 -202 367 -30 34 -34 43 -32 95 10 438
-328 835 -770 902 -57 8 -229 13 -237 6z"/>
</g>
</svg>
